<mxfile host="app.diagrams.net" agent="Mozilla/5.0 (Windows NT 10.0; Win64; x64) AppleWebKit/537.36 (KHTML, like Gecko) Chrome/131.0.0.0 Safari/537.36" version="26.0.1">
  <diagram name="Page-1" id="_WifOgACthnYfP9bI0BG">
    <mxGraphModel dx="1500" dy="746" grid="0" gridSize="10" guides="1" tooltips="1" connect="1" arrows="0" fold="1" page="1" pageScale="1" pageWidth="850" pageHeight="1100" background="#FFFFFF" math="0" shadow="0">
      <root>
        <mxCell id="0" />
        <mxCell id="1" parent="0" />
        <mxCell id="GozQuFC3Nda_rZBn2isI-15" style="edgeStyle=orthogonalEdgeStyle;rounded=0;orthogonalLoop=1;jettySize=auto;html=1;exitX=0.5;exitY=1;exitDx=0;exitDy=0;entryX=0.572;entryY=0.084;entryDx=0;entryDy=0;entryPerimeter=0;dashed=1;endArrow=none;endFill=0;" edge="1" parent="1" source="GozQuFC3Nda_rZBn2isI-4" target="GozQuFC3Nda_rZBn2isI-3">
          <mxGeometry relative="1" as="geometry" />
        </mxCell>
        <mxCell id="GozQuFC3Nda_rZBn2isI-17" value="" style="group" vertex="1" connectable="0" parent="1">
          <mxGeometry x="289.66666666666663" y="103" width="226.66666666666663" height="81.98834951456313" as="geometry" />
        </mxCell>
        <mxCell id="GozQuFC3Nda_rZBn2isI-1" value="&lt;font style=&quot;font-size: 27px;&quot;&gt;&lt;b&gt;Model&lt;/b&gt;&lt;/font&gt;" style="rounded=0;whiteSpace=wrap;html=1;" vertex="1" parent="GozQuFC3Nda_rZBn2isI-17">
          <mxGeometry y="26.803883495145648" width="226.66666666666663" height="55.18446601941749" as="geometry" />
        </mxCell>
        <mxCell id="GozQuFC3Nda_rZBn2isI-10" value="" style="rounded=0;whiteSpace=wrap;html=1;" vertex="1" parent="GozQuFC3Nda_rZBn2isI-17">
          <mxGeometry width="77.06666666666666" height="26.803883495145648" as="geometry" />
        </mxCell>
        <mxCell id="GozQuFC3Nda_rZBn2isI-23" style="rounded=0;orthogonalLoop=1;jettySize=auto;html=1;exitX=0.5;exitY=1;exitDx=0;exitDy=0;entryX=0.5;entryY=0;entryDx=0;entryDy=0;startArrow=none;startFill=0;endArrow=none;endFill=0;dashed=1;" edge="1" parent="1" source="GozQuFC3Nda_rZBn2isI-1" target="GozQuFC3Nda_rZBn2isI-4">
          <mxGeometry relative="1" as="geometry" />
        </mxCell>
        <mxCell id="GozQuFC3Nda_rZBn2isI-24" value="" style="group" vertex="1" connectable="0" parent="1">
          <mxGeometry x="233" y="258.30485436893207" width="339.99999999999994" height="95.39029126213593" as="geometry" />
        </mxCell>
        <mxCell id="GozQuFC3Nda_rZBn2isI-4" value="&lt;font style=&quot;font-size: 27px;&quot;&gt;&lt;b&gt;AutenticationManager&lt;/b&gt;&lt;/font&gt;" style="rounded=0;whiteSpace=wrap;html=1;" vertex="1" parent="GozQuFC3Nda_rZBn2isI-24">
          <mxGeometry y="32.32233009708738" width="339.99999999999994" height="63.067961165048544" as="geometry" />
        </mxCell>
        <mxCell id="GozQuFC3Nda_rZBn2isI-12" value="" style="rounded=0;whiteSpace=wrap;html=1;" vertex="1" parent="GozQuFC3Nda_rZBn2isI-24">
          <mxGeometry width="84.99999999999999" height="32.32233009708738" as="geometry" />
        </mxCell>
        <mxCell id="GozQuFC3Nda_rZBn2isI-25" value="" style="group" vertex="1" connectable="0" parent="1">
          <mxGeometry x="312" y="408" width="157.93" height="96" as="geometry" />
        </mxCell>
        <mxCell id="GozQuFC3Nda_rZBn2isI-3" value="&lt;font style=&quot;font-size: 27px;&quot;&gt;&lt;b&gt;Driver&lt;/b&gt;&lt;/font&gt;" style="rounded=0;whiteSpace=wrap;html=1;fillColor=#eeeeee;strokeColor=#36393d;" vertex="1" parent="GozQuFC3Nda_rZBn2isI-25">
          <mxGeometry y="36.21052631578947" width="157.93" height="59.789473684210535" as="geometry" />
        </mxCell>
        <mxCell id="GozQuFC3Nda_rZBn2isI-13" value="" style="rounded=0;whiteSpace=wrap;html=1;fillColor=#eeeeee;strokeColor=#36393d;" vertex="1" parent="GozQuFC3Nda_rZBn2isI-25">
          <mxGeometry width="60.678368421052646" height="36.21052631578947" as="geometry" />
        </mxCell>
      </root>
    </mxGraphModel>
  </diagram>
</mxfile>
